<svg width="123" height="53" viewBox="0 0 123 53" fill="none" xmlns="http://www.w3.org/2000/svg">
<path d="M18.8767 3.33842V20H16.6857V7.57605L11.1478 20H9.60689L4.04501 7.55197V20H1.85396V3.33842H4.21355L10.3774 17.1107L16.5412 3.33842H18.8767ZM22.3666 13.3546C22.3666 12.0063 22.6394 10.8265 23.1852 9.81525C23.731 8.78795 24.4774 7.99339 25.4244 7.43158C26.3875 6.86978 27.4549 6.58887 28.6267 6.58887C29.7824 6.58887 30.7856 6.83767 31.6364 7.33527C32.4871 7.83287 33.1212 8.45889 33.5385 9.21331V6.80557H35.7536V20H33.5385V17.5441C33.1051 18.3146 32.455 18.9566 31.5882 19.4703C30.7375 19.9679 29.7423 20.2167 28.6026 20.2167C27.4309 20.2167 26.3714 19.9278 25.4244 19.3499C24.4774 18.7721 23.731 17.9614 23.1852 16.9181C22.6394 15.8747 22.3666 14.6869 22.3666 13.3546ZM33.5385 13.3787C33.5385 12.3835 33.3378 11.5167 32.9366 10.7783C32.5353 10.04 31.9895 9.47816 31.2993 9.09293C30.6251 8.69164 29.8787 8.49099 29.0601 8.49099C28.2415 8.49099 27.4951 8.68361 26.8209 9.06885C26.1467 9.45409 25.609 10.0159 25.2077 10.7543C24.8064 11.4926 24.6058 12.3594 24.6058 13.3546C24.6058 14.3659 24.8064 15.2487 25.2077 16.0031C25.609 16.7415 26.1467 17.3114 26.8209 17.7126C27.4951 18.0979 28.2415 18.2905 29.0601 18.2905C29.8787 18.2905 30.6251 18.0979 31.2993 17.7126C31.9895 17.3114 32.5353 16.7415 32.9366 16.0031C33.3378 15.2487 33.5385 14.3739 33.5385 13.3787ZM46.4776 6.5648C48.0828 6.5648 49.383 7.05437 50.3782 8.03352C51.3734 8.99662 51.871 10.3931 51.871 12.223V20H49.704V12.536C49.704 11.2198 49.3749 10.2165 48.7168 9.52632C48.0587 8.82005 47.1598 8.46691 46.0201 8.46691C44.8644 8.46691 43.9415 8.82807 43.2512 9.5504C42.5771 10.2727 42.24 11.3241 42.24 12.7045V20H40.0489V6.80557H42.24V8.68361C42.6734 8.00944 43.2593 7.48776 43.9976 7.11858C44.7521 6.74939 45.5787 6.5648 46.4776 6.5648ZM55.2241 13.3546C55.2241 12.0063 55.497 10.8265 56.0427 9.81525C56.5885 8.78795 57.3349 7.99339 58.2819 7.43158C59.245 6.86978 60.3124 6.58887 61.4842 6.58887C62.6399 6.58887 63.6432 6.83767 64.4939 7.33527C65.3446 7.83287 65.9787 8.45889 66.396 9.21331V6.80557H68.6111V20H66.396V17.5441C65.9626 18.3146 65.3125 18.9566 64.4457 19.4703C63.595 19.9679 62.5998 20.2167 61.4601 20.2167C60.2884 20.2167 59.229 19.9278 58.2819 19.3499C57.3349 18.7721 56.5885 17.9614 56.0427 16.9181C55.497 15.8747 55.2241 14.6869 55.2241 13.3546ZM66.396 13.3787C66.396 12.3835 66.1954 11.5167 65.7941 10.7783C65.3928 10.04 64.847 9.47816 64.1568 9.09293C63.4826 8.69164 62.7362 8.49099 61.9176 8.49099C61.099 8.49099 60.3526 8.68361 59.6784 9.06885C59.0042 9.45409 58.4665 10.0159 58.0652 10.7543C57.6639 11.4926 57.4633 12.3594 57.4633 13.3546C57.4633 14.3659 57.6639 15.2487 58.0652 16.0031C58.4665 16.7415 59.0042 17.3114 59.6784 17.7126C60.3526 18.0979 61.099 18.2905 61.9176 18.2905C62.7362 18.2905 63.4826 18.0979 64.1568 17.7126C64.847 17.3114 65.3928 16.7415 65.7941 16.0031C66.1954 15.2487 66.396 14.3739 66.396 13.3787ZM75.5791 8.61138V16.3884C75.5791 17.0305 75.7155 17.4879 75.9884 17.7608C76.2612 18.0176 76.7348 18.146 77.4089 18.146H79.0221V20H77.0478C75.8279 20 74.9129 19.7191 74.303 19.1573C73.693 18.5955 73.388 17.6725 73.388 16.3884V8.61138H71.6785V6.80557H73.388V3.48289H75.5791V6.80557H79.0221V8.61138H75.5791ZM88.024 20.2167C86.788 20.2167 85.6644 19.9358 84.6532 19.374C83.658 18.8122 82.8715 18.0176 82.2936 16.9903C81.7318 15.947 81.4509 14.7431 81.4509 13.3787C81.4509 12.0304 81.7398 10.8426 82.3177 9.81525C82.9116 8.77189 83.7142 7.97734 84.7254 7.43158C85.7367 6.86978 86.8683 6.58887 88.1203 6.58887C89.3724 6.58887 90.504 6.86978 91.5153 7.43158C92.5265 7.97734 93.3211 8.76387 93.8989 9.79117C94.4928 10.8185 94.7898 12.0143 94.7898 13.3787C94.7898 14.7431 94.4848 15.947 93.8748 16.9903C93.2809 18.0176 92.4703 18.8122 91.443 19.374C90.4157 19.9358 89.2761 20.2167 88.024 20.2167ZM88.024 18.2905C88.8106 18.2905 89.5489 18.1059 90.2391 17.7367C90.9294 17.3675 91.4831 16.8138 91.9005 16.0754C92.3339 15.337 92.5506 14.4381 92.5506 13.3787C92.5506 12.3193 92.3419 11.4204 91.9246 10.682C91.5072 9.94366 90.9615 9.39791 90.2873 9.04477C89.6131 8.67558 88.8828 8.49099 88.0963 8.49099C87.2937 8.49099 86.5553 8.67558 85.8811 9.04477C85.223 9.39791 84.6933 9.94366 84.292 10.682C83.8907 11.4204 83.6901 12.3193 83.6901 13.3787C83.6901 14.4542 83.8827 15.3611 84.2679 16.0995C84.6692 16.8378 85.1989 17.3916 85.8571 17.7608C86.5152 18.1139 87.2375 18.2905 88.024 18.2905Z" fill="white"/>
<path d="M55.2335 30.9993C57.0634 30.9993 58.6445 31.3444 59.9768 32.0346C61.3251 32.7088 62.3524 33.6799 63.0587 34.948C63.781 36.2161 64.1422 37.7089 64.1422 39.4264C64.1422 41.1439 63.781 42.6367 63.0587 43.9048C62.3524 45.1568 61.3251 46.1199 59.9768 46.7941C58.6445 47.4522 57.0634 47.7812 55.2335 47.7812H50.0087V30.9993H55.2335ZM55.2335 45.9754C57.4005 45.9754 59.0538 45.4056 60.1935 44.2659C61.3332 43.1102 61.903 41.497 61.903 39.4264C61.903 37.3397 61.3251 35.7104 60.1694 34.5387C59.0298 33.3669 57.3845 32.781 55.2335 32.781H52.1998V45.9754H55.2335ZM79.6636 40.6784C79.6636 41.0958 79.6395 41.5372 79.5914 42.0027H69.0455C69.1257 43.3028 69.5672 44.3221 70.3697 45.0605C71.1884 45.7828 72.1755 46.144 73.3313 46.144C74.2783 46.144 75.0648 45.9273 75.6909 45.4939C76.3329 45.0444 76.7824 44.4505 77.0392 43.7122H79.3988C79.0456 44.9802 78.3394 46.0156 77.28 46.8182C76.2206 47.6047 74.9043 47.9979 73.3313 47.9979C72.0792 47.9979 70.9556 47.717 69.9604 47.1552C68.9813 46.5934 68.2108 45.7989 67.649 44.7716C67.0872 43.7282 66.8063 42.5243 66.8063 41.16C66.8063 39.7956 67.0792 38.5997 67.6249 37.5724C68.1707 36.5451 68.9331 35.7586 69.9123 35.2128C70.9075 34.651 72.0471 34.3701 73.3313 34.3701C74.5833 34.3701 75.6909 34.643 76.6539 35.1888C77.617 35.7345 78.3554 36.4889 78.8691 37.452C79.3988 38.3991 79.6636 39.4745 79.6636 40.6784ZM77.4003 40.2209C77.4003 39.3863 77.2158 38.672 76.8466 38.078C76.4774 37.4681 75.9718 37.0106 75.3297 36.7056C74.7037 36.3846 74.0054 36.2241 73.235 36.2241C72.1274 36.2241 71.1803 36.5772 70.3938 37.2835C69.6233 37.9898 69.1819 38.9689 69.0696 40.2209H77.4003ZM99.0154 34.346C100.043 34.346 100.958 34.5627 101.76 34.9961C102.563 35.4135 103.197 36.0475 103.662 36.8983C104.128 37.749 104.361 38.7843 104.361 40.0042V47.7812H102.194V40.3172C102.194 39.001 101.865 37.9978 101.206 37.3076C100.564 36.6013 99.6896 36.2482 98.582 36.2482C97.4424 36.2482 96.5355 36.6173 95.8613 37.3557C95.1871 38.078 94.85 39.1294 94.85 40.5099V47.7812H92.6831V40.3172C92.6831 39.001 92.354 37.9978 91.6959 37.3076C91.0538 36.6013 90.179 36.2482 89.0715 36.2482C87.9318 36.2482 87.0249 36.6173 86.3507 37.3557C85.6765 38.078 85.3395 39.1294 85.3395 40.5099V47.7812H83.1484V34.5868H85.3395V36.4889C85.7729 35.7987 86.3507 35.269 87.073 34.8998C87.8114 34.5306 88.622 34.346 89.5049 34.346C90.6124 34.346 91.5916 34.5948 92.4423 35.0924C93.293 35.59 93.9271 36.3204 94.3444 37.2835C94.7136 36.3525 95.3236 35.6302 96.1743 35.1165C97.025 34.6029 97.9721 34.346 99.0154 34.346ZM114.302 47.9979C113.066 47.9979 111.942 47.717 110.931 47.1552C109.936 46.5934 109.149 45.7989 108.571 44.7716C108.01 43.7282 107.729 42.5243 107.729 41.16C107.729 39.8116 108.018 38.6238 108.596 37.5965C109.189 36.5531 109.992 35.7586 111.003 35.2128C112.015 34.651 113.146 34.3701 114.398 34.3701C115.65 34.3701 116.782 34.651 117.793 35.2128C118.804 35.7586 119.599 36.5451 120.177 37.5724C120.771 38.5997 121.068 39.7956 121.068 41.16C121.068 42.5243 120.763 43.7282 120.153 44.7716C119.559 45.7989 118.748 46.5934 117.721 47.1552C116.694 47.717 115.554 47.9979 114.302 47.9979ZM114.302 46.0718C115.088 46.0718 115.827 45.8872 116.517 45.518C117.207 45.1488 117.761 44.595 118.178 43.8566C118.612 43.1183 118.828 42.2194 118.828 41.16C118.828 40.1006 118.62 39.2017 118.202 38.4633C117.785 37.7249 117.239 37.1792 116.565 36.826C115.891 36.4568 115.161 36.2722 114.374 36.2722C113.572 36.2722 112.833 36.4568 112.159 36.826C111.501 37.1792 110.971 37.7249 110.57 38.4633C110.169 39.2017 109.968 40.1006 109.968 41.16C109.968 42.2354 110.161 43.1423 110.546 43.8807C110.947 44.6191 111.477 45.1729 112.135 45.542C112.793 45.8952 113.515 46.0718 114.302 46.0718Z" fill="white"/>
</svg>
