<svg width="390" height="166" viewBox="0 0 390 166" fill="none" xmlns="http://www.w3.org/2000/svg">
<path d="M60.1918 11.8716V65H53.2052V25.384L35.5469 65H30.6333L12.8982 25.3072V65H5.91169V11.8716H13.4357L33.0901 55.787L52.7446 11.8716H60.1918ZM71.3198 43.81C71.3198 39.5106 72.1899 35.7487 73.9302 32.5241C75.6704 29.2484 78.0504 26.7148 81.0703 24.9233C84.1413 23.1319 87.545 22.2362 91.2814 22.2362C94.9666 22.2362 98.1655 23.0296 100.878 24.6162C103.591 26.2029 105.613 28.1991 106.944 30.6047V22.9272H114.007V65H106.944V57.1689C105.562 59.6257 103.489 61.6731 100.725 63.3109C98.012 64.8976 94.8386 65.691 91.2046 65.691C87.4682 65.691 84.0901 64.7697 81.0703 62.9271C78.0504 61.0845 75.6704 58.4997 73.9302 55.1728C72.1899 51.8459 71.3198 48.0583 71.3198 43.81ZM106.944 43.8868C106.944 40.7134 106.304 37.9495 105.024 35.5951C103.745 33.2407 102.004 31.4492 99.8034 30.2208C97.6537 28.9413 95.2737 28.3015 92.6633 28.3015C90.053 28.3015 87.6729 28.9157 85.5232 30.1441C83.3735 31.3725 81.6589 33.1639 80.3793 35.5183C79.0997 37.8728 78.4599 40.6367 78.4599 43.81C78.4599 47.0346 79.0997 49.8497 80.3793 52.2553C81.6589 54.6098 83.3735 56.4268 85.5232 57.7064C87.6729 58.9348 90.053 59.549 92.6633 59.549C95.2737 59.549 97.6537 58.9348 99.8034 57.7064C102.004 56.4268 103.745 54.6098 105.024 52.2553C106.304 49.8497 106.944 47.0602 106.944 43.8868ZM148.202 22.1594C153.321 22.1594 157.466 23.7205 160.64 26.8427C163.813 29.9137 165.4 34.3667 165.4 40.2016V65H158.49V41.1997C158.49 37.0026 157.441 33.8037 155.342 31.6028C153.244 29.3507 150.378 28.2247 146.744 28.2247C143.058 28.2247 140.115 29.3763 137.914 31.6796C135.765 33.9828 134.69 37.3353 134.69 41.7371V65H127.703V22.9272H134.69V28.9157C136.072 26.766 137.94 25.1025 140.294 23.9253C142.7 22.7481 145.336 22.1594 148.202 22.1594ZM176.092 43.81C176.092 39.5106 176.962 35.7487 178.702 32.5241C180.442 29.2484 182.823 26.7148 185.842 24.9233C188.913 23.1319 192.317 22.2362 196.053 22.2362C199.739 22.2362 202.938 23.0296 205.65 24.6162C208.363 26.2029 210.385 28.1991 211.716 30.6047V22.9272H218.779V65H211.716V57.1689C210.334 59.6257 208.261 61.6731 205.497 63.3109C202.784 64.8976 199.611 65.691 195.977 65.691C192.24 65.691 188.862 64.7697 185.842 62.9271C182.823 61.0845 180.442 58.4997 178.702 55.1728C176.962 51.8459 176.092 48.0583 176.092 43.81ZM211.716 43.8868C211.716 40.7134 211.076 37.9495 209.796 35.5951C208.517 33.2407 206.776 31.4492 204.575 30.2208C202.426 28.9413 200.046 28.3015 197.435 28.3015C194.825 28.3015 192.445 28.9157 190.295 30.1441C188.146 31.3725 186.431 33.1639 185.151 35.5183C183.872 37.8728 183.232 40.6367 183.232 43.81C183.232 47.0346 183.872 49.8497 185.151 52.2553C186.431 54.6098 188.146 56.4268 190.295 57.7064C192.445 58.9348 194.825 59.549 197.435 59.549C200.046 59.549 202.426 58.9348 204.575 57.7064C206.776 56.4268 208.517 54.6098 209.796 52.2553C211.076 49.8497 211.716 47.0602 211.716 43.8868ZM240.997 28.6853V53.4837C240.997 55.5311 241.432 56.9898 242.303 57.8599C243.173 58.6788 244.683 59.0883 246.832 59.0883H251.976V65H245.681C241.791 65 238.873 64.1043 236.928 62.3129C234.983 60.5214 234.011 57.5784 234.011 53.4837V28.6853H228.56V22.9272H234.011V12.3322H240.997V22.9272H251.976V28.6853H240.997ZM280.68 65.691C276.739 65.691 273.156 64.7953 269.932 63.0038C266.759 61.2124 264.251 58.6788 262.408 55.4031C260.617 52.0762 259.721 48.2374 259.721 43.8868C259.721 39.5874 260.642 35.7998 262.485 32.5241C264.378 29.1972 266.938 26.6636 270.162 24.9233C273.387 23.1319 276.995 22.2362 280.988 22.2362C284.98 22.2362 288.588 23.1319 291.813 24.9233C295.037 26.6636 297.571 29.1716 299.414 32.4473C301.307 35.7231 302.254 39.5362 302.254 43.8868C302.254 48.2374 301.282 52.0762 299.337 55.4031C297.443 58.6788 294.858 61.2124 291.583 63.0038C288.307 64.7953 284.673 65.691 280.68 65.691ZM280.68 59.549C283.188 59.549 285.543 58.9604 287.744 57.7831C289.945 56.6059 291.71 54.8401 293.041 52.4856C294.423 50.1312 295.114 47.2649 295.114 43.8868C295.114 40.5087 294.449 37.6424 293.118 35.288C291.787 32.9336 290.047 31.1933 287.897 30.0673C285.748 28.8901 283.419 28.3015 280.911 28.3015C278.352 28.3015 275.997 28.8901 273.847 30.0673C271.749 31.1933 270.06 32.9336 268.78 35.288C267.501 37.6424 266.861 40.5087 266.861 43.8868C266.861 47.3161 267.475 50.208 268.703 52.5624C269.983 54.9169 271.672 56.6827 273.771 57.8599C275.869 58.9859 278.172 59.549 280.68 59.549Z" fill="#333333"/>
<path d="M176.126 100.075C181.961 100.075 187.002 101.175 191.25 103.376C195.55 105.526 198.825 108.622 201.078 112.666C203.381 116.709 204.532 121.469 204.532 126.946C204.532 132.423 203.381 137.183 201.078 141.226C198.825 145.218 195.55 148.289 191.25 150.439C187.002 152.538 181.961 153.587 176.126 153.587H159.465V100.075H176.126ZM176.126 147.829C183.035 147.829 188.307 146.012 191.941 142.378C195.575 138.693 197.392 133.549 197.392 126.946C197.392 120.292 195.55 115.097 191.865 111.361C188.231 107.624 182.984 105.756 176.126 105.756H166.452V147.829H176.126ZM254.025 130.938C254.025 132.269 253.949 133.677 253.795 135.161H220.167C220.423 139.307 221.831 142.557 224.39 144.911C227 147.215 230.148 148.366 233.833 148.366C236.853 148.366 239.361 147.675 241.357 146.293C243.405 144.86 244.838 142.966 245.657 140.612H253.181C252.055 144.655 249.803 147.957 246.425 150.516C243.046 153.024 238.849 154.278 233.833 154.278C229.841 154.278 226.258 153.382 223.085 151.591C219.963 149.799 217.506 147.266 215.714 143.99C213.923 140.663 213.027 136.824 213.027 132.474C213.027 128.123 213.897 124.31 215.638 121.034C217.378 117.758 219.809 115.25 222.931 113.51C226.105 111.719 229.739 110.823 233.833 110.823C237.826 110.823 241.357 111.693 244.428 113.433C247.499 115.174 249.854 117.579 251.492 120.65C253.181 123.67 254.025 127.099 254.025 130.938ZM246.808 129.48C246.808 126.818 246.22 124.54 245.043 122.647C243.865 120.702 242.253 119.243 240.206 118.27C238.21 117.247 235.983 116.735 233.526 116.735C229.995 116.735 226.975 117.861 224.467 120.113C222.01 122.365 220.603 125.487 220.244 129.48H246.808ZM315.732 110.746C319.008 110.746 321.925 111.437 324.484 112.819C327.044 114.15 329.065 116.172 330.55 118.885C332.034 121.597 332.776 124.899 332.776 128.789V153.587H325.866V129.787C325.866 125.59 324.817 122.391 322.719 120.19C320.671 117.938 317.882 116.812 314.35 116.812C310.716 116.812 307.824 117.989 305.674 120.343C303.525 122.647 302.45 125.999 302.45 130.401V153.587H295.54V129.787C295.54 125.59 294.491 122.391 292.392 120.19C290.345 117.938 287.556 116.812 284.024 116.812C280.39 116.812 277.498 117.989 275.348 120.343C273.199 122.647 272.124 125.999 272.124 130.401V153.587H265.137V111.514H272.124V117.579C273.506 115.378 275.348 113.689 277.652 112.512C280.006 111.335 282.591 110.746 285.406 110.746C288.937 110.746 292.06 111.54 294.772 113.126C297.485 114.713 299.507 117.042 300.838 120.113C302.015 117.144 303.96 114.841 306.673 113.203C309.385 111.565 312.405 110.746 315.732 110.746ZM364.476 154.278C360.535 154.278 356.952 153.382 353.727 151.591C350.554 149.799 348.046 147.266 346.203 143.99C344.412 140.663 343.516 136.824 343.516 132.474C343.516 128.174 344.437 124.387 346.28 121.111C348.174 117.784 350.733 115.25 353.958 113.51C357.182 111.719 360.791 110.823 364.783 110.823C368.775 110.823 372.384 111.719 375.608 113.51C378.833 115.25 381.366 117.758 383.209 121.034C385.103 124.31 386.05 128.123 386.05 132.474C386.05 136.824 385.077 140.663 383.132 143.99C381.238 147.266 378.654 149.799 375.378 151.591C372.102 153.382 368.468 154.278 364.476 154.278ZM364.476 148.136C366.984 148.136 369.338 147.547 371.539 146.37C373.74 145.193 375.506 143.427 376.837 141.073C378.219 138.718 378.909 135.852 378.909 132.474C378.909 129.096 378.244 126.229 376.913 123.875C375.583 121.52 373.842 119.78 371.693 118.654C369.543 117.477 367.214 116.888 364.706 116.888C362.147 116.888 359.792 117.477 357.643 118.654C355.544 119.78 353.855 121.52 352.576 123.875C351.296 126.229 350.656 129.096 350.656 132.474C350.656 135.903 351.27 138.795 352.499 141.149C353.778 143.504 355.467 145.27 357.566 146.447C359.664 147.573 361.968 148.136 364.476 148.136Z" fill="#333333"/>
</svg>
