<svg width="69" height="49" viewBox="0 0 69 49" fill="none" xmlns="http://www.w3.org/2000/svg">
<path d="M57.1624 22.6506C57.1897 22.3022 57.2077 21.9512 57.2077 21.5957C57.2077 14.2061 51.2173 8.21572 43.8277 8.21572C41.5505 8.21572 39.407 8.78619 37.53 9.78961C35.5049 4.08578 30.0632 0 23.665 0C15.5401 0 8.95356 6.58657 8.95356 14.7114C8.95356 16.2388 9.18649 17.7117 9.6185 19.0968C3.98745 21.3134 0 26.7966 0 33.2147C0 41.5935 6.79234 48.3859 15.1711 48.3859H54.3234C54.7276 48.4239 55.1367 48.4454 55.551 48.4454C62.7025 48.4454 68.5001 42.6479 68.5001 35.4962C68.5 28.8908 63.553 23.4445 57.1624 22.6506ZM41.7033 29.6047H38.967C38.1584 29.6047 37.4968 30.2663 37.4968 31.0751V38.8447C37.4968 39.6533 36.8351 40.3151 36.0266 40.3151H32.4734C31.6648 40.3151 31.0032 39.6533 31.0032 38.8447V31.0751C31.0032 30.2664 30.3416 29.6047 29.533 29.6047H26.7967C25.9881 29.6047 25.7264 29.0776 26.2152 28.4334L33.3614 19.014C33.85 18.3696 34.6499 18.3696 35.1386 19.014L42.2848 28.4334C42.7736 29.0777 42.5119 29.6047 41.7033 29.6047Z" fill="#B3B3B3"/>
</svg>
