<svg width="69" height="47" viewBox="0 0 69 47" fill="none" xmlns="http://www.w3.org/2000/svg">
<path d="M64.9171 0H3.58287C1.60721 0 0 1.60694 0 3.5826V43.3486C0 45.3243 1.60721 46.9323 3.58287 46.9323H64.9171C66.8928 46.9323 68.5 45.3243 68.5 43.3486V3.5826C68.5 1.60694 66.8928 0 64.9171 0ZM17.6829 27.1837V26.5854C17.6829 26.2779 17.6321 25.9745 17.5011 25.6256C17.4759 25.5924 14.9868 22.2331 14.9868 19.1958C14.9868 15.5768 17.2596 12.9498 20.3911 12.9498C23.5225 12.9498 25.7953 15.5768 25.7953 19.1958C25.7953 22.2331 23.3063 25.5924 23.2504 25.6838C23.1499 25.9735 23.0989 26.2768 23.0989 26.5854V27.1837C23.0989 28.0105 23.5843 28.7677 24.3441 29.1168L28.4001 30.7736C29.2809 31.1787 29.9099 31.989 30.0802 32.9207L30.2717 35.3845H10.5105L10.6987 32.9425C10.8718 31.9888 11.5012 31.1786 12.3735 30.7778L16.4463 29.1126C17.1975 28.7677 17.6829 28.0105 17.6829 27.1837ZM57.4381 30.2085V34.1629H35.6876V30.2085H57.4381ZM57.4381 21.6991V25.6537H35.6876V21.6991H57.4381ZM30.9696 17.1443V13.1899H57.4379V17.1443H30.9696Z" fill="#B3B3B3"/>
</svg>
