<svg width="46" height="60" viewBox="0 0 46 60" fill="none" xmlns="http://www.w3.org/2000/svg">
<path d="M14.8281 13.0157V0.723633L0.691406 14.8611H12.9825C14.3109 14.8611 14.8281 14.344 14.8281 13.0157Z" fill="#B3B3B3"/>
<path d="M22.2116 29.8377C22.4683 29.6418 22.7269 27.9728 23.2402 25.4632C23.7555 22.9556 23.1108 21.4129 21.7631 21.6079C20.4113 21.7989 20.092 23.3415 20.2212 24.9499C20.3486 26.5563 21.1831 28.3568 21.6984 29.3862C21.6984 29.3862 21.955 30.0298 22.2116 29.8377Z" fill="#B3B3B3"/>
<path d="M15.9093 42.8239C15.4724 42.9855 12.5691 43.8534 10.8334 45.5234C9.09567 47.1965 9.22305 48.6735 9.99696 49.1879C10.7669 49.7013 12.9531 48.1593 14.3049 46.553C15.6547 44.9437 16.554 43.3372 16.554 43.0807C16.554 42.8239 16.4266 42.6301 15.9093 42.8239Z" fill="#B3B3B3"/>
<path d="M20.7368 40.0589C22.0181 39.5456 26.6473 38.515 26.6473 38.515C26.6473 38.515 23.6283 34.9173 23.2405 34.209C23.2405 34.209 21.4402 38.9001 20.7368 40.0589Z" fill="#B3B3B3"/>
<path d="M42.9601 0H17.5609V14.6606C17.5609 16.2778 16.2444 17.5954 14.6282 17.5954H0V57.607C0 58.9264 1.07355 60 2.39191 60H42.9601C44.2785 60 45.352 58.9264 45.352 57.607V2.39109C45.352 1.0725 44.2786 0 42.9601 0ZM35.1356 44.6215C32.871 44.3129 30.1184 41.9591 27.7871 39.9052C27.7185 39.8816 27.6578 39.8679 27.6128 39.8679C27.2346 39.8679 23.0286 41.0796 19.8314 41.9876C15.161 50.3391 10.5082 52.7234 8.32383 49.9601C7.17586 48.5055 7.61859 45.0731 13.147 42.5009C14.2577 41.9876 15.8034 41.3794 17.6058 40.8298C19.1456 38.0332 20.6992 34.1691 21.5691 31.8818C20.1506 29.1686 18.9988 26.3102 18.8694 24.9517C18.6109 22.2491 19.7687 19.8052 22.0842 19.8052C25.0345 19.8052 27.2248 22.6341 23.767 32.583C24.8445 34.3512 26.302 36.4954 27.983 38.1968C30.8883 37.6434 33.7915 37.472 34.9984 37.5444C39.1594 37.7952 40.0234 39.7377 40.1507 41.2167C40.2802 42.6957 38.4151 45.073 35.1356 44.6215Z" fill="#B3B3B3"/>
<path d="M34.6849 38.9002C33.1334 38.8003 29.0918 39.3498 29.5404 39.5417C29.5404 39.5417 32.8198 41.8604 34.7455 42.115C36.6791 42.3717 37.3863 41.5371 37.3863 40.7015C37.3863 39.865 36.6791 39.0295 34.6849 38.9002Z" fill="#B3B3B3"/>
</svg>
